<?xml version="1.0" encoding="UTF-8"?>
<svg id="Capa_2" data-name="Capa 2" xmlns="http://www.w3.org/2000/svg" xmlns:xlink="http://www.w3.org/1999/xlink" viewBox="0 0 206.15 206.14">
  <defs>
    <style>
      .cls-1 {
        fill: #fff;
      }

      .cls-1, .cls-2 {
        stroke-width: 0px;
      }

      .cls-2 {
        fill: url(#linear-gradient);
        fill-rule: evenodd;
      }
    </style>
    <linearGradient id="linear-gradient" x1="103.07" y1="3.48" x2="103.07" y2="200.29" gradientUnits="userSpaceOnUse">
      <stop offset="0" stop-color="#fec053"/>
      <stop offset=".33" stop-color="#f2203e"/>
      <stop offset=".65" stop-color="#b729a8"/>
      <stop offset="1" stop-color="#5342d6"/>
    </linearGradient>
  </defs>
  <g id="_3" data-name="3">
    <g>
      <path class="cls-2" d="M45.36,0h115.43c24.91,0,45.36,20.45,45.36,45.36v115.32c0,25.01-20.45,45.46-45.36,45.46H45.36c-24.91,0-45.36-20.45-45.36-45.46V45.36C0,20.45,20.45,0,45.36,0h0Z"/>
      <g>
        <path class="cls-1" d="M133.29,173.23h-60.44c-22.02,0-39.94-17.92-39.94-39.94v-60.45c0-22.02,17.92-39.94,39.94-39.94h60.44c22.02,0,39.94,17.92,39.94,39.94v60.45c0,22.02-17.92,39.94-39.94,39.94ZM72.85,44.94c-15.39,0-27.91,12.52-27.91,27.91v60.45c0,15.39,12.52,27.91,27.91,27.91h60.44c15.39,0,27.91-12.52,27.91-27.91v-60.45c0-15.39-12.52-27.91-27.91-27.91h-60.44Z"/>
        <path class="cls-1" d="M103.07,139c-19.81,0-35.93-16.12-35.93-35.93s16.12-35.93,35.93-35.93,35.93,16.12,35.93,35.93-16.12,35.93-35.93,35.93ZM103.07,79.17c-13.18,0-23.9,10.72-23.9,23.9s10.72,23.9,23.9,23.9,23.9-10.72,23.9-23.9-10.72-23.9-23.9-23.9Z"/>
        <path class="cls-1" d="M149.18,65.09c0,4.77-3.87,8.63-8.63,8.63s-8.64-3.86-8.64-8.63,3.87-8.64,8.64-8.64,8.63,3.87,8.63,8.64Z"/>
      </g>
    </g>
  </g>
</svg>